<svg xmlns="http://www.w3.org/2000/svg" version="1.1" xmlns:xlink="http://www.w3.org/1999/xlink" xmlns:svgjs="http://svgjs.com/svgjs" width="1440" height="560" preserveAspectRatio="none" viewBox="0 0 1440 560"><g mask="url(&quot;#SvgjsMask1084&quot;)" fill="none"><rect width="1440" height="560" x="0" y="0" fill="url(#SvgjsLinearGradient1085)"></rect><path d="M105.52 539.94L170.48 577.44L170.48 652.44L105.52 689.94L40.57 652.44L40.57 577.44zM170.48 202.44L235.43 239.94L235.43 314.94L170.48 352.44L105.52 314.94L105.52 239.94zM300.38 202.44L365.34 239.94L365.34 314.94L300.38 352.44L235.43 314.94L235.43 239.94zM365.34 539.94L430.29 577.44L430.29 652.44L365.34 689.94L300.38 652.44L300.38 577.44zM430.29 -22.56L495.25 14.94L495.25 89.94L430.29 127.44L365.34 89.94L365.34 14.94zM430.29 202.44L495.25 239.94L495.25 314.94L430.29 352.44L365.34 314.94L365.34 239.94zM560.2 427.44L625.15 464.94L625.15 539.94L560.2 577.44L495.25 539.94L495.25 464.94zM690.11 202.44L755.06 239.94L755.06 314.94L690.11 352.44L625.15 314.94L625.15 239.94zM884.97 89.94L949.92 127.44L949.92 202.44L884.97 239.94L820.01 202.44L820.01 127.44zM1014.88 314.94L1079.83 352.44L1079.83 427.44L1014.88 464.94L949.92 427.44L949.92 352.44zM1274.69 314.94L1339.64 352.44L1339.64 427.44L1274.69 464.94L1209.74 427.44L1209.74 352.44zM1274.69 539.94L1339.64 577.44L1339.64 652.44L1274.69 689.94L1209.74 652.44L1209.74 577.44zM1469.55 202.44L1534.51 239.94L1534.51 314.94L1469.55 352.44L1404.6 314.94L1404.6 239.94zM1469.55 427.44L1534.51 464.94L1534.51 539.94L1469.55 577.44L1404.6 539.94L1404.6 464.94zM1534.51 539.94L1599.46 577.44L1599.46 652.44L1534.51 689.94L1469.55 652.44L1469.55 577.44z" stroke="#03305d" stroke-width="2"></path><path d="M98.02 539.94 a7.5 7.5 0 1 0 15 0 a7.5 7.5 0 1 0 -15 0zM162.98 577.44 a7.5 7.5 0 1 0 15 0 a7.5 7.5 0 1 0 -15 0zM162.98 652.44 a7.5 7.5 0 1 0 15 0 a7.5 7.5 0 1 0 -15 0zM98.02 689.94 a7.5 7.5 0 1 0 15 0 a7.5 7.5 0 1 0 -15 0zM33.07 652.44 a7.5 7.5 0 1 0 15 0 a7.5 7.5 0 1 0 -15 0zM33.07 577.44 a7.5 7.5 0 1 0 15 0 a7.5 7.5 0 1 0 -15 0zM162.98 202.44 a7.5 7.5 0 1 0 15 0 a7.5 7.5 0 1 0 -15 0zM227.93 239.94 a7.5 7.5 0 1 0 15 0 a7.5 7.5 0 1 0 -15 0zM227.93 314.94 a7.5 7.5 0 1 0 15 0 a7.5 7.5 0 1 0 -15 0zM162.98 352.44 a7.5 7.5 0 1 0 15 0 a7.5 7.5 0 1 0 -15 0zM98.02 314.94 a7.5 7.5 0 1 0 15 0 a7.5 7.5 0 1 0 -15 0zM98.02 239.94 a7.5 7.5 0 1 0 15 0 a7.5 7.5 0 1 0 -15 0zM292.88 202.44 a7.5 7.5 0 1 0 15 0 a7.5 7.5 0 1 0 -15 0zM357.84 239.94 a7.5 7.5 0 1 0 15 0 a7.5 7.5 0 1 0 -15 0zM357.84 314.94 a7.5 7.5 0 1 0 15 0 a7.5 7.5 0 1 0 -15 0zM292.88 352.44 a7.5 7.5 0 1 0 15 0 a7.5 7.5 0 1 0 -15 0zM357.84 539.94 a7.5 7.5 0 1 0 15 0 a7.5 7.5 0 1 0 -15 0zM422.79 577.44 a7.5 7.5 0 1 0 15 0 a7.5 7.5 0 1 0 -15 0zM422.79 652.44 a7.5 7.5 0 1 0 15 0 a7.5 7.5 0 1 0 -15 0zM357.84 689.94 a7.5 7.5 0 1 0 15 0 a7.5 7.5 0 1 0 -15 0zM292.88 652.44 a7.5 7.5 0 1 0 15 0 a7.5 7.5 0 1 0 -15 0zM292.88 577.44 a7.5 7.5 0 1 0 15 0 a7.5 7.5 0 1 0 -15 0zM422.79 -22.56 a7.5 7.5 0 1 0 15 0 a7.5 7.5 0 1 0 -15 0zM487.75 14.94 a7.5 7.5 0 1 0 15 0 a7.5 7.5 0 1 0 -15 0zM487.75 89.94 a7.5 7.5 0 1 0 15 0 a7.5 7.5 0 1 0 -15 0zM422.79 127.44 a7.5 7.5 0 1 0 15 0 a7.5 7.5 0 1 0 -15 0zM357.84 89.94 a7.5 7.5 0 1 0 15 0 a7.5 7.5 0 1 0 -15 0zM357.84 14.94 a7.5 7.5 0 1 0 15 0 a7.5 7.5 0 1 0 -15 0zM422.79 202.44 a7.5 7.5 0 1 0 15 0 a7.5 7.5 0 1 0 -15 0zM487.75 239.94 a7.5 7.5 0 1 0 15 0 a7.5 7.5 0 1 0 -15 0zM487.75 314.94 a7.5 7.5 0 1 0 15 0 a7.5 7.5 0 1 0 -15 0zM422.79 352.44 a7.5 7.5 0 1 0 15 0 a7.5 7.5 0 1 0 -15 0zM552.7 427.44 a7.5 7.5 0 1 0 15 0 a7.5 7.5 0 1 0 -15 0zM617.65 464.94 a7.5 7.5 0 1 0 15 0 a7.5 7.5 0 1 0 -15 0zM617.65 539.94 a7.5 7.5 0 1 0 15 0 a7.5 7.5 0 1 0 -15 0zM552.7 577.44 a7.5 7.5 0 1 0 15 0 a7.5 7.5 0 1 0 -15 0zM487.75 539.94 a7.5 7.5 0 1 0 15 0 a7.5 7.5 0 1 0 -15 0zM487.75 464.94 a7.5 7.5 0 1 0 15 0 a7.5 7.5 0 1 0 -15 0zM682.61 202.44 a7.5 7.5 0 1 0 15 0 a7.5 7.5 0 1 0 -15 0zM747.56 239.94 a7.5 7.5 0 1 0 15 0 a7.5 7.5 0 1 0 -15 0zM747.56 314.94 a7.5 7.5 0 1 0 15 0 a7.5 7.5 0 1 0 -15 0zM682.61 352.44 a7.5 7.5 0 1 0 15 0 a7.5 7.5 0 1 0 -15 0zM617.65 314.94 a7.5 7.5 0 1 0 15 0 a7.5 7.5 0 1 0 -15 0zM617.65 239.94 a7.5 7.5 0 1 0 15 0 a7.5 7.5 0 1 0 -15 0zM877.47 89.94 a7.5 7.5 0 1 0 15 0 a7.5 7.5 0 1 0 -15 0zM942.42 127.44 a7.5 7.5 0 1 0 15 0 a7.5 7.5 0 1 0 -15 0zM942.42 202.44 a7.5 7.5 0 1 0 15 0 a7.5 7.5 0 1 0 -15 0zM877.47 239.94 a7.5 7.5 0 1 0 15 0 a7.5 7.5 0 1 0 -15 0zM812.51 202.44 a7.5 7.5 0 1 0 15 0 a7.5 7.5 0 1 0 -15 0zM812.51 127.44 a7.5 7.5 0 1 0 15 0 a7.5 7.5 0 1 0 -15 0zM1007.38 314.94 a7.5 7.5 0 1 0 15 0 a7.5 7.5 0 1 0 -15 0zM1072.33 352.44 a7.5 7.5 0 1 0 15 0 a7.5 7.5 0 1 0 -15 0zM1072.33 427.44 a7.5 7.5 0 1 0 15 0 a7.5 7.5 0 1 0 -15 0zM1007.38 464.94 a7.5 7.5 0 1 0 15 0 a7.5 7.5 0 1 0 -15 0zM942.42 427.44 a7.5 7.5 0 1 0 15 0 a7.5 7.5 0 1 0 -15 0zM942.42 352.44 a7.5 7.5 0 1 0 15 0 a7.5 7.5 0 1 0 -15 0zM1267.19 314.94 a7.5 7.5 0 1 0 15 0 a7.5 7.5 0 1 0 -15 0zM1332.14 352.44 a7.5 7.5 0 1 0 15 0 a7.5 7.5 0 1 0 -15 0zM1332.14 427.44 a7.5 7.5 0 1 0 15 0 a7.5 7.5 0 1 0 -15 0zM1267.19 464.94 a7.5 7.5 0 1 0 15 0 a7.5 7.5 0 1 0 -15 0zM1202.24 427.44 a7.5 7.5 0 1 0 15 0 a7.5 7.5 0 1 0 -15 0zM1202.24 352.44 a7.5 7.5 0 1 0 15 0 a7.5 7.5 0 1 0 -15 0zM1267.19 539.94 a7.5 7.5 0 1 0 15 0 a7.5 7.5 0 1 0 -15 0zM1332.14 577.44 a7.5 7.5 0 1 0 15 0 a7.5 7.5 0 1 0 -15 0zM1332.14 652.44 a7.5 7.5 0 1 0 15 0 a7.5 7.5 0 1 0 -15 0zM1267.19 689.94 a7.5 7.5 0 1 0 15 0 a7.5 7.5 0 1 0 -15 0zM1202.24 652.44 a7.5 7.5 0 1 0 15 0 a7.5 7.5 0 1 0 -15 0zM1202.24 577.44 a7.5 7.5 0 1 0 15 0 a7.5 7.5 0 1 0 -15 0zM1462.05 202.44 a7.5 7.5 0 1 0 15 0 a7.5 7.5 0 1 0 -15 0zM1527.01 239.94 a7.5 7.5 0 1 0 15 0 a7.5 7.5 0 1 0 -15 0zM1527.01 314.94 a7.5 7.5 0 1 0 15 0 a7.5 7.5 0 1 0 -15 0zM1462.05 352.44 a7.5 7.5 0 1 0 15 0 a7.5 7.5 0 1 0 -15 0zM1397.1 314.94 a7.5 7.5 0 1 0 15 0 a7.5 7.5 0 1 0 -15 0zM1397.1 239.94 a7.5 7.5 0 1 0 15 0 a7.5 7.5 0 1 0 -15 0zM1462.05 427.44 a7.5 7.5 0 1 0 15 0 a7.5 7.5 0 1 0 -15 0zM1527.01 464.94 a7.5 7.5 0 1 0 15 0 a7.5 7.5 0 1 0 -15 0zM1527.01 539.94 a7.5 7.5 0 1 0 15 0 a7.5 7.5 0 1 0 -15 0zM1462.05 577.44 a7.5 7.5 0 1 0 15 0 a7.5 7.5 0 1 0 -15 0zM1397.1 539.94 a7.5 7.5 0 1 0 15 0 a7.5 7.5 0 1 0 -15 0zM1397.1 464.94 a7.5 7.5 0 1 0 15 0 a7.5 7.5 0 1 0 -15 0zM1591.96 577.44 a7.5 7.5 0 1 0 15 0 a7.5 7.5 0 1 0 -15 0zM1591.96 652.44 a7.5 7.5 0 1 0 15 0 a7.5 7.5 0 1 0 -15 0zM1527.01 689.94 a7.5 7.5 0 1 0 15 0 a7.5 7.5 0 1 0 -15 0zM1462.05 652.44 a7.5 7.5 0 1 0 15 0 a7.5 7.5 0 1 0 -15 0z" fill="#03305d"></path><path d="M50.93 38.36L94.23 63.36L94.23 113.36L50.93 138.36L7.63 113.36L7.63 63.36zM7.63 113.36L50.93 138.36L50.93 188.36L7.63 213.36L-35.67 188.36L-35.67 138.36zM50.93 188.36L94.23 213.36L94.23 263.36L50.93 288.36L7.63 263.36L7.63 213.36zM7.63 263.36L50.93 288.36L50.93 338.36L7.63 363.36L-35.67 338.36L-35.67 288.36zM50.93 338.36L94.23 363.36L94.23 413.36L50.93 438.36L7.63 413.36L7.63 363.36zM137.54 38.36L180.84 63.36L180.84 113.36L137.54 138.36L94.23 113.36L94.23 63.36zM94.23 113.36L137.54 138.36L137.54 188.36L94.23 213.36L50.93 188.36L50.93 138.36zM137.54 488.36L180.84 513.36L180.84 563.36L137.54 588.36L94.23 563.36L94.23 513.36zM180.84 -36.64L224.14 -11.64L224.14 38.36L180.84 63.36L137.54 38.36L137.54 -11.64zM224.14 338.36L267.44 363.36L267.44 413.36L224.14 438.36L180.84 413.36L180.84 363.36zM310.75 38.36L354.05 63.36L354.05 113.36L310.75 138.36L267.44 113.36L267.44 63.36zM310.75 488.36L354.05 513.36L354.05 563.36L310.75 588.36L267.44 563.36L267.44 513.36zM397.35 38.36L440.66 63.36L440.66 113.36L397.35 138.36L354.05 113.36L354.05 63.36zM397.35 188.36L440.66 213.36L440.66 263.36L397.35 288.36L354.05 263.36L354.05 213.36zM354.05 263.36L397.35 288.36L397.35 338.36L354.05 363.36L310.75 338.36L310.75 288.36zM397.35 338.36L440.66 363.36L440.66 413.36L397.35 438.36L354.05 413.36L354.05 363.36zM354.05 413.36L397.35 438.36L397.35 488.36L354.05 513.36L310.75 488.36L310.75 438.36zM440.66 -36.64L483.96 -11.64L483.96 38.36L440.66 63.36L397.35 38.36L397.35 -11.64zM440.66 263.36L483.96 288.36L483.96 338.36L440.66 363.36L397.35 338.36L397.35 288.36zM483.96 338.36L527.26 363.36L527.26 413.36L483.96 438.36L440.66 413.36L440.66 363.36zM483.96 488.36L527.26 513.36L527.26 563.36L483.96 588.36L440.66 563.36L440.66 513.36zM570.56 188.36L613.87 213.36L613.87 263.36L570.56 288.36L527.26 263.36L527.26 213.36zM570.56 338.36L613.87 363.36L613.87 413.36L570.56 438.36L527.26 413.36L527.26 363.36zM570.56 488.36L613.87 513.36L613.87 563.36L570.56 588.36L527.26 563.36L527.26 513.36zM657.17 38.36L700.47 63.36L700.47 113.36L657.17 138.36L613.87 113.36L613.87 63.36zM613.87 263.36L657.17 288.36L657.17 338.36L613.87 363.36L570.56 338.36L570.56 288.36zM657.17 338.36L700.47 363.36L700.47 413.36L657.17 438.36L613.87 413.36L613.87 363.36zM657.17 488.36L700.47 513.36L700.47 563.36L657.17 588.36L613.87 563.36L613.87 513.36zM743.77 188.36L787.08 213.36L787.08 263.36L743.77 288.36L700.47 263.36L700.47 213.36zM700.47 263.36L743.77 288.36L743.77 338.36L700.47 363.36L657.17 338.36L657.17 288.36zM787.08 -36.64L830.38 -11.64L830.38 38.36L787.08 63.36L743.77 38.36L743.77 -11.64zM787.08 263.36L830.38 288.36L830.38 338.36L787.08 363.36L743.77 338.36L743.77 288.36zM830.38 488.36L873.68 513.36L873.68 563.36L830.38 588.36L787.08 563.36L787.08 513.36zM916.98 188.36L960.29 213.36L960.29 263.36L916.98 288.36L873.68 263.36L873.68 213.36zM916.98 338.36L960.29 363.36L960.29 413.36L916.98 438.36L873.68 413.36L873.68 363.36zM1003.59 38.36L1046.89 63.36L1046.89 113.36L1003.59 138.36L960.29 113.36L960.29 63.36zM960.29 113.36L1003.59 138.36L1003.59 188.36L960.29 213.36L916.98 188.36L916.98 138.36zM1003.59 338.36L1046.89 363.36L1046.89 413.36L1003.59 438.36L960.29 413.36L960.29 363.36zM1046.89 -36.64L1090.19 -11.64L1090.19 38.36L1046.89 63.36L1003.59 38.36L1003.59 -11.64zM1046.89 113.36L1090.19 138.36L1090.19 188.36L1046.89 213.36L1003.59 188.36L1003.59 138.36zM1176.8 38.36L1220.1 63.36L1220.1 113.36L1176.8 138.36L1133.5 113.36L1133.5 63.36zM1176.8 188.36L1220.1 213.36L1220.1 263.36L1176.8 288.36L1133.5 263.36L1133.5 213.36zM1133.5 263.36L1176.8 288.36L1176.8 338.36L1133.5 363.36L1090.19 338.36L1090.19 288.36zM1176.8 338.36L1220.1 363.36L1220.1 413.36L1176.8 438.36L1133.5 413.36L1133.5 363.36zM1220.1 -36.64L1263.4 -11.64L1263.4 38.36L1220.1 63.36L1176.8 38.36L1176.8 -11.64zM1263.4 38.36L1306.71 63.36L1306.71 113.36L1263.4 138.36L1220.1 113.36L1220.1 63.36zM1263.4 338.36L1306.71 363.36L1306.71 413.36L1263.4 438.36L1220.1 413.36L1220.1 363.36zM1263.4 488.36L1306.71 513.36L1306.71 563.36L1263.4 588.36L1220.1 563.36L1220.1 513.36zM1306.71 -36.64L1350.01 -11.64L1350.01 38.36L1306.71 63.36L1263.4 38.36L1263.4 -11.64zM1306.71 263.36L1350.01 288.36L1350.01 338.36L1306.71 363.36L1263.4 338.36L1263.4 288.36zM1350.01 488.36L1393.31 513.36L1393.31 563.36L1350.01 588.36L1306.71 563.36L1306.71 513.36zM1393.31 -36.64L1436.61 -11.64L1436.61 38.36L1393.31 63.36L1350.01 38.36L1350.01 -11.64zM1393.31 113.36L1436.61 138.36L1436.61 188.36L1393.31 213.36L1350.01 188.36L1350.01 138.36zM1436.61 188.36L1479.92 213.36L1479.92 263.36L1436.61 288.36L1393.31 263.36L1393.31 213.36zM1436.61 338.36L1479.92 363.36L1479.92 413.36L1436.61 438.36L1393.31 413.36L1393.31 363.36zM1436.61 488.36L1479.92 513.36L1479.92 563.36L1436.61 588.36L1393.31 563.36L1393.31 513.36z" stroke="rgba(6, 80, 156, 0.93)" stroke-width="2"></path></g><defs><mask id="SvgjsMask1084"><rect width="1440" height="560" fill="#ffffff"></rect></mask><linearGradient x1="15.28%" y1="-39.29%" x2="84.72%" y2="139.29%" gradientUnits="userSpaceOnUse" id="SvgjsLinearGradient1085"><stop stop-color="#0e2a47" offset="0"></stop><stop stop-color="rgba(0, 69, 158, 0.28)" offset="1"></stop></linearGradient></defs></svg>