<svg xmlns="http://www.w3.org/2000/svg" version="1.1" xmlns:xlink="http://www.w3.org/1999/xlink" xmlns:svgjs="http://svgjs.com/svgjs" width="1440" height="560" preserveAspectRatio="none" viewBox="0 0 1440 560"><g mask="url(&quot;#SvgjsMask1009&quot;)" fill="none"><path d="M616 325L615 720" stroke-width="8" stroke="url(#SvgjsLinearGradient1010)" stroke-linecap="round" class="Up"></path><path d="M1240 162L1239 -210" stroke-width="8" stroke="url(#SvgjsLinearGradient1010)" stroke-linecap="round" class="Up"></path><path d="M947 525L946 863" stroke-width="10" stroke="url(#SvgjsLinearGradient1010)" stroke-linecap="round" class="Up"></path><path d="M995 444L994 255" stroke-width="8" stroke="url(#SvgjsLinearGradient1011)" stroke-linecap="round" class="Down"></path><path d="M570 125L569 420" stroke-width="6" stroke="url(#SvgjsLinearGradient1011)" stroke-linecap="round" class="Down"></path><path d="M154 175L153 -103" stroke-width="8" stroke="url(#SvgjsLinearGradient1011)" stroke-linecap="round" class="Down"></path><path d="M786 27L785 -302" stroke-width="10" stroke="url(#SvgjsLinearGradient1010)" stroke-linecap="round" class="Up"></path><path d="M236 304L235 565" stroke-width="6" stroke="url(#SvgjsLinearGradient1011)" stroke-linecap="round" class="Down"></path><path d="M759 35L758 -220" stroke-width="6" stroke="url(#SvgjsLinearGradient1011)" stroke-linecap="round" class="Down"></path><path d="M963 273L962 -122" stroke-width="10" stroke="url(#SvgjsLinearGradient1010)" stroke-linecap="round" class="Up"></path><path d="M1369 160L1368 -133" stroke-width="10" stroke="url(#SvgjsLinearGradient1010)" stroke-linecap="round" class="Up"></path><path d="M659 200L658 544" stroke-width="6" stroke="url(#SvgjsLinearGradient1011)" stroke-linecap="round" class="Down"></path><path d="M335 4L334 -197" stroke-width="6" stroke="url(#SvgjsLinearGradient1010)" stroke-linecap="round" class="Up"></path><path d="M416 232L415 449" stroke-width="10" stroke="url(#SvgjsLinearGradient1011)" stroke-linecap="round" class="Down"></path><path d="M976 410L975 788" stroke-width="10" stroke="url(#SvgjsLinearGradient1010)" stroke-linecap="round" class="Up"></path><path d="M925 72L924 414" stroke-width="8" stroke="url(#SvgjsLinearGradient1011)" stroke-linecap="round" class="Down"></path><path d="M932 438L931 801" stroke-width="10" stroke="url(#SvgjsLinearGradient1011)" stroke-linecap="round" class="Down"></path><path d="M1292 422L1291 684" stroke-width="10" stroke="url(#SvgjsLinearGradient1010)" stroke-linecap="round" class="Up"></path><path d="M1356 70L1355 449" stroke-width="10" stroke="url(#SvgjsLinearGradient1010)" stroke-linecap="round" class="Up"></path><path d="M856 501L855 88" stroke-width="8" stroke="url(#SvgjsLinearGradient1010)" stroke-linecap="round" class="Up"></path><path d="M1052 404L1051 210" stroke-width="6" stroke="url(#SvgjsLinearGradient1010)" stroke-linecap="round" class="Up"></path><path d="M1041 205L1040 572" stroke-width="8" stroke="url(#SvgjsLinearGradient1011)" stroke-linecap="round" class="Down"></path><path d="M420 165L419 556" stroke-width="10" stroke="url(#SvgjsLinearGradient1011)" stroke-linecap="round" class="Down"></path><path d="M1307 245L1306 393" stroke-width="10" stroke="url(#SvgjsLinearGradient1011)" stroke-linecap="round" class="Down"></path><path d="M1192 493L1191 898" stroke-width="6" stroke="url(#SvgjsLinearGradient1011)" stroke-linecap="round" class="Down"></path><path d="M826 520L825 269" stroke-width="8" stroke="url(#SvgjsLinearGradient1010)" stroke-linecap="round" class="Up"></path><path d="M109 536L108 232" stroke-width="10" stroke="url(#SvgjsLinearGradient1011)" stroke-linecap="round" class="Down"></path><path d="M988 441L987 45" stroke-width="8" stroke="url(#SvgjsLinearGradient1011)" stroke-linecap="round" class="Down"></path><path d="M574 40L573 -272" stroke-width="10" stroke="url(#SvgjsLinearGradient1011)" stroke-linecap="round" class="Down"></path><path d="M29 340L28 -41" stroke-width="10" stroke="url(#SvgjsLinearGradient1010)" stroke-linecap="round" class="Up"></path><path d="M254 437L253 110" stroke-width="6" stroke="url(#SvgjsLinearGradient1011)" stroke-linecap="round" class="Down"></path><path d="M196 320L195 -59" stroke-width="8" stroke="url(#SvgjsLinearGradient1011)" stroke-linecap="round" class="Down"></path><path d="M938 66L937 414" stroke-width="10" stroke="url(#SvgjsLinearGradient1010)" stroke-linecap="round" class="Up"></path><path d="M288 389L287 125" stroke-width="6" stroke="url(#SvgjsLinearGradient1011)" stroke-linecap="round" class="Down"></path><path d="M699 22L698 -242" stroke-width="8" stroke="url(#SvgjsLinearGradient1010)" stroke-linecap="round" class="Up"></path><path d="M991 349L990 46" stroke-width="10" stroke="url(#SvgjsLinearGradient1011)" stroke-linecap="round" class="Down"></path></g><defs><mask id="SvgjsMask1009"><rect width="1440" height="560" fill="#ffffff"></rect></mask><linearGradient x1="0%" y1="100%" x2="0%" y2="0%" id="SvgjsLinearGradient1010"><stop stop-color="rgba(55, 109, 166, 0)" offset="0"></stop><stop stop-color="rgba(55, 109, 166, 1)" offset="1"></stop></linearGradient><linearGradient x1="0%" y1="0%" x2="0%" y2="100%" id="SvgjsLinearGradient1011"><stop stop-color="rgba(55, 109, 166, 0)" offset="0"></stop><stop stop-color="rgba(55, 109, 166, 1)" offset="1"></stop></linearGradient></defs></svg>